# xmcd
#
# Track frame offsets:
#	150
#	16178
#	30910
#	45723
#	62480
#	78535
#	92619
#	105758
#	118708
#	134250
#	148604
#	163066
#
# Disc length: 2352 seconds
#
# Revision: 0
# Processed by: cddbd v1.5.2PL0 Copyright (c) Steve Scherf et al.
# Submitted via: EasyCDDAExtractor 16.0.6.1
#
DISCID=8c092e0c
DTITLE=Μπιθικώτσης Γρηγόρης - Τα αγαπημένα τραγούδια του Γρηγόρη Μπιθικώτση
DYEAR=2002
DGENRE=Λαϊκή
TTITLE0=Μπιθικώτσης Γρηγόρης - Γαρύφαλλο στ' αυτί [Μάνου Χατζιδάκι-Αλέκου Σακε
TTITLE0=λλάριου]
TTITLE1=Μπιθικώτσης Γρηγόρης-Τσιτσάνης Βασίλης - Η άμαξα μέσ' στη βροχή [Α.Χατ
TTITLE1=ζηχρήστου-Χαρ. Βασιλειάδη]
TTITLE2=Μπιθικώτσης Γρηγόρης-Καλδάρας Απόστολος - Στ' Αποστόλη το κουτούκι [Απ
TTITLE2=Καλδάρα-Ευτ. Παπαγιαννοπούλου]
TTITLE3=Μπιθικώτσης Γρηγόρης - Δυό αδέλφια [Σταύρου Ξαρχάκου-Ιάκωβου Καμπανέλλ
TTITLE3=η]
TTITLE4=Μπιθικώτσης Γρηγόρης-Θεοδωράκης Μίκης - Το παλληκάρι [Μίκη Θεοδωράκη]
TTITLE5=Μπιθικώτσης Γρηγόρης - Τι να σού κάνει μια καρδιά [Αντ. Κατινάρη-Ευτ. 
TTITLE5=Παπαγιαννοπούλου]
TTITLE6=Μπιθικώτσης Γρηγόρης-Γκίκα Βούλα - Αν θέλεις να χωρίσουμε [Γρηγόρη Μπι
TTITLE6=θικώτση-Χρ. Κολοκοτρώνη]
TTITLE7=Μπιθικώτσης Γρηγόρης - Ο μπατίρης ο Λουκάς [Γρηγόρη Μπιθικώτση-Κώστα Β
TTITLE7=ίρβου]
TTITLE8=Μπιθικώτσης Γρηγόρης - Το μπουζούκι στο Παρίσι [Μάρκου Βαμβακάρη]
TTITLE9=Μπιθικώτσης Γρηγόρης-Χρηστάκης - Ο Πειραιάς, ο Πειραιάς [Θάνου Σοφού]
TTITLE10=Μπιθικώτσης Γρηγόρης-Χιώτης Μανώλης - Του Βοτανικού ο μάγκας [Γρηγόρη
TTITLE10=Μπιθικώτση-Λάκη Τσώλη]
TTITLE11=Μπιθικώτσης Γρηγόρης-Λύδια Γιώτα - Θα σε πάω στο φεγγάρι [Μπάμπη Μπακ
TTITLE11=άλη-Δημήτρη Γκούτη]
EXTD=
EXTT0=
EXTT1=
EXTT2=
EXTT3=
EXTT4=
EXTT5=
EXTT6=
EXTT7=
EXTT8=
EXTT9=
EXTT10=
EXTT11=
PLAYORDER=
